<svg width="71" height="53" viewBox="0 0 71 53" fill="none" xmlns="http://www.w3.org/2000/svg">
<path d="M1.0367 0.452253C1.0367 0.452253 -9.72765 65.174 38.1158 50.96C36.8764 51.3276 34.5651 50.4665 33.4012 50.1464C23.1004 47.3131 16.7116 37.7931 15.2252 27.4718C14.2512 20.6962 14.4738 13.6357 14.5861 6.80857C14.6208 4.68154 14.7167 2.57103 14.9373 0.452253H1.0367Z" fill="url(#paint0_linear_1_11)"/>
<path d="M46.7117 0H54.5318C58.9564 0 63.2972 1.92879 66.3395 5.1689C69.7779 8.83235 70.8498 13.7307 70.9458 18.6477C71.0234 22.5693 71.1112 26.8089 70.4844 30.683C68.7407 41.4565 59.379 49.9027 48.5064 49.9027C37.056 49.9027 29.0808 40.3186 26.1957 33.5245C24.0559 28.4878 24.0498 23.5646 24.0396 14.5134C24.0314 8.42966 24.5582 3.41358 25.0339 0H38.4404C37.7523 5.78842 37.6502 10.5918 37.6931 13.9827C37.7789 20.6281 37.7911 29.636 45.4274 32.1038C48.8515 33.2106 52.4063 32.3288 54.9667 29.828C57.9763 26.8874 58.8502 22.3999 56.8778 18.6374C54.9422 14.945 50.926 13.1959 46.9118 13.4065C46.6402 11.6822 46.43 9.73892 46.3585 7.60776C46.2605 4.74762 46.434 2.18486 46.7117 0Z" fill="url(#paint1_linear_1_11)"/>
<defs>
<linearGradient id="paint0_linear_1_11" x1="-9.00835" y1="5.99137" x2="28.3882" y2="74.2785" gradientUnits="userSpaceOnUse">
<stop stop-color="#652D90"/>
<stop offset="0.9674" stop-color="#482782"/>
<stop offset="1" stop-color="#3A297B"/>
</linearGradient>
<linearGradient id="paint1_linear_1_11" x1="25.3867" y1="-0.357817" x2="66.7478" y2="40.537" gradientUnits="userSpaceOnUse">
<stop stop-color="#652D90"/>
<stop offset="0.9674" stop-color="#482782"/>
<stop offset="1" stop-color="#3A297B"/>
</linearGradient>
</defs>
</svg>
